<svg xmlns="http://www.w3.org/2000/svg" xmlns:xlink="http://www.w3.org/1999/xlink" width="1920" zoomAndPan="magnify" viewBox="0 0 1440 809.999993" height="1080" preserveAspectRatio="xMidYMid meet" version="1.0"><defs><g/></defs><rect x="-144" width="1728" fill="#ffffff" y="-80.999999" height="971.999992" fill-opacity="1"/><rect x="-144" width="1728" fill="#ffffff" y="-80.999999" height="971.999992" fill-opacity="1"/><g fill="#0a1f44" fill-opacity="1"><g transform="translate(279.667965, 526.874993)"><g><path d="M 34.65625 -195.265625 C 44.09375 -195.265625 54.097656 -194.613281 64.671875 -193.3125 C 75.253906 -192.007812 85.507812 -189.484375 95.4375 -185.734375 C 105.363281 -181.992188 114.351562 -176.546875 122.40625 -169.390625 C 130.457031 -162.234375 136.882812 -152.835938 141.6875 -141.203125 C 146.488281 -129.566406 148.890625 -115.039062 148.890625 -97.625 C 148.890625 -80.863281 146.53125 -66.75 141.8125 -55.28125 C 137.09375 -43.8125 130.742188 -34.457031 122.765625 -27.21875 C 114.796875 -19.976562 105.804688 -14.363281 95.796875 -10.375 C 85.796875 -6.382812 75.546875 -3.65625 65.046875 -2.1875 C 54.546875 -0.726562 44.414062 0 34.65625 0 L 2.6875 0 C 0.894531 0 0 -0.734375 0 -2.203125 L 0 -78.84375 L 37.34375 -78.84375 L 37.34375 -35.875 C 42.0625 -35.71875 47.59375 -35.84375 53.9375 -36.25 C 60.28125 -36.65625 66.785156 -37.875 73.453125 -39.90625 C 80.128906 -41.9375 86.351562 -45.148438 92.125 -49.546875 C 97.90625 -53.941406 102.546875 -60.039062 106.046875 -67.84375 C 109.546875 -75.65625 111.296875 -85.582031 111.296875 -97.625 C 111.296875 -113.082031 108.082031 -125.488281 101.65625 -134.84375 C 95.226562 -144.207031 86.441406 -150.878906 75.296875 -154.859375 C 64.148438 -158.847656 51.5 -160.4375 37.34375 -159.625 L 37.34375 -116.421875 L 0 -116.421875 L 0 -193.0625 C 0 -194.53125 0.894531 -195.265625 2.6875 -195.265625 Z M 34.65625 -195.265625 "/></g></g></g><g fill="#0a1f44" fill-opacity="1"><g transform="translate(436.122952, 526.874993)"><g><path d="M 79.5625 -33.4375 C 81.351562 -33.4375 82.25 -32.703125 82.25 -31.234375 L 82.25 -2.203125 C 82.25 -0.734375 81.351562 0 79.5625 0 L 2.6875 0 C 0.894531 0 0 -0.734375 0 -2.203125 L 0 -31.234375 C 0 -32.703125 0.894531 -33.4375 2.6875 -33.4375 L 22.703125 -33.4375 L 22.703125 -195.265625 L 60.046875 -195.265625 L 60.046875 -33.4375 Z M 79.5625 -33.4375 "/></g></g></g><g fill="#0a1f44" fill-opacity="1"><g transform="translate(522.527099, 526.874993)"><g><path d="M 174.765625 -47.109375 L 174.765625 -109.109375 L 124.96875 -9.28125 C 124.644531 -8.300781 123.910156 -7.8125 122.765625 -7.8125 L 92.75 -7.8125 C 91.445312 -7.8125 90.632812 -8.300781 90.3125 -9.28125 L 37.34375 -111.78125 L 37.34375 -2.203125 C 37.34375 -0.734375 36.445312 0 34.65625 0 L 2.4375 0 C 0.8125 0 0 -0.734375 0 -2.203125 L 0 -193.0625 C 0 -194.53125 0.8125 -195.265625 2.4375 -195.265625 L 35.140625 -195.265625 C 36.441406 -195.265625 37.257812 -194.773438 37.59375 -193.796875 L 107.640625 -50.765625 L 174.265625 -193.796875 C 174.921875 -194.773438 175.816406 -195.265625 176.953125 -195.265625 L 209.171875 -195.265625 C 210.960938 -195.265625 211.859375 -194.53125 211.859375 -193.0625 L 211.859375 -47.109375 Z M 174.765625 -47.109375 "/></g></g></g><g fill="#0a1f44" fill-opacity="1"><g transform="translate(745.127718, 526.874993)"><g><path d="M 92.75 -36.375 L 92.75 0 L 2.6875 0 C 0.894531 0 0 -0.734375 0 -2.203125 L 0 -193.0625 C 0 -194.53125 0.894531 -195.265625 2.6875 -195.265625 L 92.75 -195.265625 L 92.75 -159.875 L 37.34375 -159.875 L 37.34375 -115.6875 L 113.984375 -115.6875 C 115.773438 -115.6875 116.671875 -114.957031 116.671875 -113.5 L 116.671875 -82.5 C 116.671875 -81.03125 115.773438 -80.296875 113.984375 -80.296875 L 37.34375 -80.296875 L 37.34375 -36.375 Z M 92.75 -36.375 "/></g></g></g><g fill="#0a1f44" fill-opacity="1"><g transform="translate(867.655666, 526.874993)"><g><path d="M 161.578125 -195.265625 C 163.367188 -195.265625 164.265625 -194.53125 164.265625 -193.0625 L 164.265625 -2.203125 C 164.265625 -0.734375 163.367188 0 161.578125 0 L 129.359375 0 C 129.203125 0 128.835938 -0.078125 128.265625 -0.234375 C 127.691406 -0.398438 127.328125 -0.566406 127.171875 -0.734375 L 37.34375 -129.359375 L 37.34375 -46.859375 L 0 -46.859375 L 0 -193.0625 C 0 -194.53125 0.8125 -195.265625 2.4375 -195.265625 L 34.90625 -195.265625 C 35.226562 -195.265625 35.632812 -195.222656 36.125 -195.140625 C 36.613281 -195.054688 36.9375 -194.851562 37.09375 -194.53125 L 127.171875 -65.90625 L 127.171875 -193.0625 C 127.171875 -194.53125 128.144531 -195.265625 130.09375 -195.265625 Z M 161.578125 -195.265625 "/></g></g></g><g fill="#34a2cb" fill-opacity="1"><g transform="translate(1040.226516, 526.874993)"><g><path d="M 0 -57.84375 C 0 -61.101562 0.160156 -64.398438 0.484375 -67.734375 C 0.804688 -71.066406 1.539062 -74.359375 2.6875 -77.609375 L 43.6875 -193.796875 C 44.007812 -194.773438 44.742188 -195.265625 45.890625 -195.265625 L 79.328125 -195.265625 C 80.140625 -195.265625 80.789062 -194.976562 81.28125 -194.40625 C 81.769531 -193.832031 81.847656 -193.140625 81.515625 -192.328125 L 53.703125 -113.015625 C 55.003906 -113.492188 56.46875 -113.773438 58.09375 -113.859375 C 59.71875 -113.941406 61.585938 -113.984375 63.703125 -113.984375 C 74.273438 -113.984375 83.34375 -111.253906 90.90625 -105.796875 C 98.476562 -100.347656 104.296875 -93.3125 108.359375 -84.6875 C 112.429688 -76.070312 114.46875 -66.878906 114.46875 -57.109375 C 114.46875 -46.703125 111.863281 -37.144531 106.65625 -28.4375 C 101.457031 -19.726562 94.460938 -12.8125 85.671875 -7.6875 C 76.878906 -2.5625 67.195312 0 56.625 0 C 45.238281 0 35.3125 -2.640625 26.84375 -7.921875 C 18.382812 -13.210938 11.796875 -20.25 7.078125 -29.03125 C 2.359375 -37.820312 0 -47.425781 0 -57.84375 Z M 34.171875 -56.875 C 34.171875 -50.363281 36.40625 -44.828125 40.875 -40.265625 C 45.351562 -35.710938 50.6875 -33.4375 56.875 -33.4375 C 63.21875 -33.4375 68.664062 -35.710938 73.21875 -40.265625 C 77.78125 -44.828125 80.0625 -50.363281 80.0625 -56.875 C 80.0625 -63.382812 77.78125 -68.957031 73.21875 -73.59375 C 68.664062 -78.226562 63.21875 -80.546875 56.875 -80.546875 C 50.851562 -80.546875 45.5625 -78.226562 41 -73.59375 C 36.445312 -68.957031 34.171875 -63.382812 34.171875 -56.875 Z M 34.171875 -56.875 "/></g></g></g></svg>