<svg xmlns="http://www.w3.org/2000/svg" xmlns:xlink="http://www.w3.org/1999/xlink" width="1920" zoomAndPan="magnify" viewBox="0 0 1440 809.999993" height="1080" preserveAspectRatio="xMidYMid meet" version="1.0"><defs><g/><clipPath id="946977cb47"><rect x="0" width="775" y="0" height="746"/></clipPath></defs><g transform="matrix(1, 0, 0, 1, 333, 0.000000000000039746)"><g clip-path="url(#946977cb47)"><g fill="#0a1f44" fill-opacity="1"><g transform="translate(4.088213, 672.350206)"><g><path d="M 95.96875 -540.640625 C 122.09375 -540.640625 149.796875 -538.835938 179.078125 -535.234375 C 208.367188 -531.628906 236.753906 -524.644531 264.234375 -514.28125 C 291.710938 -503.914062 316.601562 -488.820312 338.90625 -469 C 361.207031 -449.175781 379.003906 -423.15625 392.296875 -390.9375 C 405.585938 -358.726562 412.234375 -318.519531 412.234375 -270.3125 C 412.234375 -223.914062 405.703125 -184.832031 392.640625 -153.0625 C 379.578125 -121.300781 362.003906 -95.394531 339.921875 -75.34375 C 317.847656 -55.300781 292.957031 -39.757812 265.25 -28.71875 C 237.539062 -17.6875 209.15625 -10.140625 180.09375 -6.078125 C 151.039062 -2.023438 123 0 95.96875 0 L 7.4375 0 C 2.476562 0 0 -2.023438 0 -6.078125 L 0 -218.28125 L 103.390625 -218.28125 L 103.390625 -99.34375 C 116.460938 -98.894531 131.78125 -99.234375 149.34375 -100.359375 C 166.914062 -101.484375 184.9375 -104.859375 203.40625 -110.484375 C 221.882812 -116.117188 239.117188 -125.019531 255.109375 -137.1875 C 271.109375 -149.351562 283.945312 -166.25 293.625 -187.875 C 303.3125 -209.5 308.15625 -236.976562 308.15625 -270.3125 C 308.15625 -313.113281 299.257812 -347.46875 281.46875 -373.375 C 263.675781 -399.28125 239.347656 -417.75 208.484375 -428.78125 C 177.617188 -439.820312 142.585938 -444.21875 103.390625 -441.96875 L 103.390625 -322.359375 L 0 -322.359375 L 0 -534.5625 C 0 -538.613281 2.476562 -540.640625 7.4375 -540.640625 Z M 95.96875 -540.640625 "/></g></g></g><g fill="#34a2cb" fill-opacity="1"><g transform="translate(437.317449, 672.350206)"><g><path d="M 0 -160.15625 C 0 -169.175781 0.445312 -178.300781 1.34375 -187.53125 C 2.25 -196.769531 4.28125 -205.894531 7.4375 -214.90625 L 120.96875 -536.578125 C 121.863281 -539.285156 123.890625 -540.640625 127.046875 -540.640625 L 219.640625 -540.640625 C 221.890625 -540.640625 223.6875 -539.847656 225.03125 -538.265625 C 226.382812 -536.691406 226.613281 -534.78125 225.71875 -532.53125 L 148.671875 -312.890625 C 152.273438 -314.242188 156.328125 -315.03125 160.828125 -315.25 C 165.335938 -315.476562 170.523438 -315.59375 176.390625 -315.59375 C 205.671875 -315.59375 230.785156 -308.046875 251.734375 -292.953125 C 272.679688 -277.859375 288.785156 -258.375 300.046875 -234.5 C 311.316406 -210.625 316.953125 -185.171875 316.953125 -158.140625 C 316.953125 -129.304688 309.742188 -102.835938 295.328125 -78.734375 C 280.910156 -54.628906 261.535156 -35.476562 237.203125 -21.28125 C 212.878906 -7.09375 186.070312 0 156.78125 0 C 125.25 0 97.769531 -7.316406 74.34375 -21.953125 C 50.914062 -36.597656 32.664062 -56.082031 19.59375 -80.40625 C 6.53125 -104.738281 0 -131.320312 0 -160.15625 Z M 94.609375 -157.453125 C 94.609375 -139.429688 100.800781 -124.113281 113.1875 -111.5 C 125.582031 -98.882812 140.335938 -92.578125 157.453125 -92.578125 C 175.023438 -92.578125 190.117188 -98.882812 202.734375 -111.5 C 215.347656 -124.113281 221.65625 -139.429688 221.65625 -157.453125 C 221.65625 -175.484375 215.347656 -190.914062 202.734375 -203.75 C 190.117188 -216.59375 175.023438 -223.015625 157.453125 -223.015625 C 140.785156 -223.015625 126.144531 -216.59375 113.53125 -203.75 C 100.914062 -190.914062 94.609375 -175.484375 94.609375 -157.453125 Z M 94.609375 -157.453125 "/></g></g></g></g></g></svg>