<svg xmlns="http://www.w3.org/2000/svg" xmlns:xlink="http://www.w3.org/1999/xlink" width="1920" zoomAndPan="magnify" viewBox="0 0 1440 809.999993" height="1080" preserveAspectRatio="xMidYMid meet" version="1.0"><defs><g/></defs><g fill="#a1a1a1" fill-opacity="1"><g transform="translate(88.59721, 557.861111)"><g><path d="M 49.703125 -280 C 63.234375 -280 77.582031 -279.066406 92.75 -277.203125 C 107.914062 -275.335938 122.613281 -271.71875 136.84375 -266.34375 C 151.082031 -260.976562 163.972656 -253.160156 175.515625 -242.890625 C 187.066406 -232.628906 196.285156 -219.15625 203.171875 -202.46875 C 210.054688 -185.789062 213.5 -164.96875 213.5 -140 C 213.5 -115.96875 210.113281 -95.722656 203.34375 -79.265625 C 196.582031 -62.816406 187.484375 -49.398438 176.046875 -39.015625 C 164.617188 -28.640625 151.726562 -20.59375 137.375 -14.875 C 123.019531 -9.15625 108.316406 -5.242188 93.265625 -3.140625 C 78.222656 -1.046875 63.703125 0 49.703125 0 L 3.84375 0 C 1.28125 0 0 -1.050781 0 -3.15625 L 0 -113.046875 L 53.546875 -113.046875 L 53.546875 -51.453125 C 60.316406 -51.210938 68.25 -51.382812 77.34375 -51.96875 C 86.445312 -52.550781 95.78125 -54.300781 105.34375 -57.21875 C 114.914062 -60.132812 123.84375 -64.742188 132.125 -71.046875 C 140.40625 -77.347656 147.050781 -86.097656 152.0625 -97.296875 C 157.082031 -108.492188 159.59375 -122.726562 159.59375 -140 C 159.59375 -162.164062 154.984375 -179.957031 145.765625 -193.375 C 136.554688 -206.789062 123.957031 -216.359375 107.96875 -222.078125 C 91.988281 -227.796875 73.847656 -230.070312 53.546875 -228.90625 L 53.546875 -166.953125 L 0 -166.953125 L 0 -276.84375 C 0 -278.945312 1.28125 -280 3.84375 -280 Z M 49.703125 -280 "/></g></g></g><g fill="#a1a1a1" fill-opacity="1"><g transform="translate(312.943581, 557.861111)"><g><path d="M 114.09375 -47.953125 C 116.664062 -47.953125 117.953125 -46.898438 117.953125 -44.796875 L 117.953125 -3.15625 C 117.953125 -1.050781 116.664062 0 114.09375 0 L 3.84375 0 C 1.28125 0 0 -1.050781 0 -3.15625 L 0 -44.796875 C 0 -46.898438 1.28125 -47.953125 3.84375 -47.953125 L 32.546875 -47.953125 L 32.546875 -280 L 86.09375 -280 L 86.09375 -47.953125 Z M 114.09375 -47.953125 "/></g></g></g><g fill="#a1a1a1" fill-opacity="1"><g transform="translate(436.841593, 557.861111)"><g><path d="M 250.59375 -67.546875 L 250.59375 -156.453125 L 179.203125 -13.296875 C 178.734375 -11.898438 177.679688 -11.203125 176.046875 -11.203125 L 133 -11.203125 C 131.132812 -11.203125 129.96875 -11.898438 129.5 -13.296875 L 53.546875 -160.296875 L 53.546875 -3.15625 C 53.546875 -1.050781 52.265625 0 49.703125 0 L 3.5 0 C 1.164062 0 0 -1.050781 0 -3.15625 L 0 -276.84375 C 0 -278.945312 1.164062 -280 3.5 -280 L 50.40625 -280 C 52.269531 -280 53.4375 -279.300781 53.90625 -277.90625 L 154.34375 -72.796875 L 249.90625 -277.90625 C 250.832031 -279.300781 252.113281 -280 253.75 -280 L 299.953125 -280 C 302.515625 -280 303.796875 -278.945312 303.796875 -276.84375 L 303.796875 -67.546875 Z M 250.59375 -67.546875 "/></g></g></g><g fill="#a1a1a1" fill-opacity="1"><g transform="translate(756.036477, 557.861111)"><g><path d="M 133 -52.15625 L 133 0 L 3.84375 0 C 1.28125 0 0 -1.050781 0 -3.15625 L 0 -276.84375 C 0 -278.945312 1.28125 -280 3.84375 -280 L 133 -280 L 133 -229.25 L 53.546875 -229.25 L 53.546875 -165.90625 L 163.453125 -165.90625 C 166.015625 -165.90625 167.296875 -164.851562 167.296875 -162.75 L 167.296875 -118.296875 C 167.296875 -116.203125 166.015625 -115.15625 163.453125 -115.15625 L 53.546875 -115.15625 L 53.546875 -52.15625 Z M 133 -52.15625 "/></g></g></g><g fill="#a1a1a1" fill-opacity="1"><g transform="translate(931.733673, 557.861111)"><g><path d="M 231.703125 -280 C 234.265625 -280 235.546875 -278.945312 235.546875 -276.84375 L 235.546875 -3.15625 C 235.546875 -1.050781 234.265625 0 231.703125 0 L 185.5 0 C 185.269531 0 184.742188 -0.113281 183.921875 -0.34375 C 183.109375 -0.582031 182.582031 -0.816406 182.34375 -1.046875 L 53.546875 -185.5 L 53.546875 -67.203125 L 0 -67.203125 L 0 -276.84375 C 0 -278.945312 1.164062 -280 3.5 -280 L 50.046875 -280 C 50.515625 -280 51.097656 -279.941406 51.796875 -279.828125 C 52.492188 -279.710938 52.960938 -279.421875 53.203125 -278.953125 L 182.34375 -94.5 L 182.34375 -276.84375 C 182.34375 -278.945312 183.742188 -280 186.546875 -280 Z M 231.703125 -280 "/></g></g></g><g fill="#34a2cb" fill-opacity="1"><g transform="translate(1179.190942, 557.861111)"><g><path d="M 0 -82.953125 C 0 -87.617188 0.234375 -92.34375 0.703125 -97.125 C 1.171875 -101.90625 2.21875 -106.628906 3.84375 -111.296875 L 62.65625 -277.90625 C 63.113281 -279.300781 64.160156 -280 65.796875 -280 L 113.75 -280 C 114.914062 -280 115.847656 -279.585938 116.546875 -278.765625 C 117.242188 -277.953125 117.363281 -276.960938 116.90625 -275.796875 L 77 -162.046875 C 78.863281 -162.742188 80.960938 -163.148438 83.296875 -163.265625 C 85.628906 -163.390625 88.3125 -163.453125 91.34375 -163.453125 C 106.507812 -163.453125 119.519531 -159.539062 130.375 -151.71875 C 141.226562 -143.90625 149.570312 -133.816406 155.40625 -121.453125 C 161.238281 -109.085938 164.15625 -95.90625 164.15625 -81.90625 C 164.15625 -66.96875 160.421875 -53.253906 152.953125 -40.765625 C 145.484375 -28.285156 135.445312 -18.367188 122.84375 -11.015625 C 110.25 -3.671875 96.367188 0 81.203125 0 C 64.867188 0 50.632812 -3.789062 38.5 -11.375 C 26.363281 -18.957031 16.910156 -29.046875 10.140625 -41.640625 C 3.378906 -54.242188 0 -68.015625 0 -82.953125 Z M 49 -81.546875 C 49 -72.210938 52.207031 -64.28125 58.625 -57.75 C 65.039062 -51.21875 72.679688 -47.953125 81.546875 -47.953125 C 90.648438 -47.953125 98.46875 -51.21875 105 -57.75 C 111.53125 -64.28125 114.796875 -72.210938 114.796875 -81.546875 C 114.796875 -90.878906 111.53125 -98.867188 105 -105.515625 C 98.46875 -112.171875 90.648438 -115.5 81.546875 -115.5 C 72.910156 -115.5 65.328125 -112.171875 58.796875 -105.515625 C 52.265625 -98.867188 49 -90.878906 49 -81.546875 Z M 49 -81.546875 "/></g></g></g></svg>